<?xml version="1.0" encoding="iso-8859-1"?>
<!-- Generator: Adobe Illustrator 19.0.0, SVG Export Plug-In . SVG Version: 6.00 Build 0)  -->
<svg version="1.1" id="Layer_1" xmlns="http://www.w3.org/2000/svg" xmlns:xlink="http://www.w3.org/1999/xlink" x="0px" y="0px"
	 viewBox="0 0 512 512" style="enable-background:new 0 0 512 512;" xml:space="preserve">
<g>
	<path style="fill:#00B494;" d="M190.475,105.318h-21.873V75.914c0-9.433-7.634-17.081-17.051-17.081s-17.051,7.648-17.051,17.081
		v29.404h-13.762c-8.485,0-15.386-7.033-15.386-15.679V27.394c0-9.433-7.634-17.082-17.051-17.082S71.252,17.96,71.252,27.394V89.64
		c0,27.484,22.2,49.842,49.487,49.842h52.685v81.199c0,9.433,7.634,17.082,17.052,17.082c9.417,0,17.051-7.648,17.051-17.082
		v-98.281C207.526,112.966,199.892,105.318,190.475,105.318z"/>
	<path style="fill:#00B494;" d="M423.501,10.312c-9.417,0-17.051,7.648-17.051,17.082V89.64c0,8.645-6.902,15.679-15.385,15.679
		h-13.763V75.914c0-9.433-7.634-17.081-17.051-17.081c-9.417,0-17.051,7.648-17.051,17.081v29.404h-21.872
		c-9.417,0-17.051,7.648-17.051,17.082v98.281c0,9.433,7.634,17.082,17.051,17.082s17.051-7.648,17.051-17.082v-81.199h52.686
		c27.286,0,49.486-22.358,49.486-49.842V27.394C440.552,17.96,432.917,10.312,423.501,10.312z"/>
</g>
<path style="fill:#A67C52;" d="M372.941,248.94c-4.958,0-8.977-4.02-8.977-8.979v-51.267c0-4.96,4.019-8.98,8.977-8.98h130.082
	c4.958,0,8.977,4.02,8.977,8.98c0,16.634-8.603,32.083-24.224,43.5c-14.774,10.798-34.267,16.744-54.893,16.744h-59.943V248.94z"/>
<path id="SVGCleanerId_0" style="fill:#A67C52;" d="M79.117,248.94c-20.624,0-40.119-5.947-54.893-16.744
	C8.603,220.776,0,205.328,0,188.694c0-4.96,4.02-8.98,8.978-8.98H139.06c4.958,0,8.977,4.02,8.977,8.98v51.267
	c0,4.959-4.019,8.979-8.977,8.979H79.117z"/>
<g>
	<path id="SVGCleanerId_0_1_" style="fill:#A67C52;" d="M79.117,248.94c-20.624,0-40.119-5.947-54.893-16.744
		C8.603,220.776,0,205.328,0,188.694c0-4.96,4.02-8.98,8.978-8.98H139.06c4.958,0,8.977,4.02,8.977,8.98v51.267
		c0,4.959-4.019,8.979-8.977,8.979H79.117z"/>
</g>
<path style="opacity:0.1;fill:#414042;enable-background:new    ;" d="M112.705,226.897c-20.624,0-40.119-5.947-54.892-16.746
	c-11.432-8.357-19.087-18.878-22.38-30.437H8.978c-4.958,0-8.978,4.02-8.978,8.98c0,16.634,8.603,32.083,24.224,43.5
	c14.774,10.798,34.268,16.744,54.893,16.744h59.944c4.958,0,8.977-4.02,8.977-8.979v-13.063L112.705,226.897L112.705,226.897z"/>
<path style="fill:#C69C6D;" d="M106.113,179.715V349.89c0,83.835,67.287,151.798,150.291,151.798s150.293-67.962,150.293-151.798
	V179.715H106.113z"/>
<path style="opacity:0.1;fill:#414042;enable-background:new    ;" d="M139.558,349.889V179.715h-33.445V349.89
	c0,83.835,67.287,151.798,150.291,151.798c5.66,0,11.247-0.321,16.745-0.937C198.006,492.358,139.558,428.023,139.558,349.889z"/>
<path style="fill:#A67C52;" d="M256,330.107c-38.428,0-69.58,31.464-69.58,70.278v84.079c20.806,10.996,44.47,17.224,69.58,17.224
	s48.774-6.228,69.58-17.224v-84.079C325.58,361.571,294.428,330.107,256,330.107z"/>
<ellipse style="fill:#ED5D51;" cx="256" cy="363.698" rx="33.531" ry="33.593"/>
<g>
	<path style="fill:#636052;" d="M345.493,301.298c0,10.013-8.114,18.131-18.125,18.131l0,0c-10.008,0-18.127-8.118-18.127-18.131
		l0,0c0-10.011,8.119-18.13,18.127-18.13l0,0C337.38,283.168,345.493,291.287,345.493,301.298L345.493,301.298z"/>
	<path style="fill:#636052;" d="M203.566,301.298c0,10.013-8.115,18.131-18.125,18.131l0,0c-10.008,0-18.126-8.118-18.126-18.131
		l0,0c0-10.011,8.119-18.13,18.126-18.13l0,0C195.451,283.168,203.566,291.287,203.566,301.298L203.566,301.298z"/>
</g>
<g>
</g>
<g>
</g>
<g>
</g>
<g>
</g>
<g>
</g>
<g>
</g>
<g>
</g>
<g>
</g>
<g>
</g>
<g>
</g>
<g>
</g>
<g>
</g>
<g>
</g>
<g>
</g>
<g>
</g>
</svg>
