<?xml version="1.0" encoding="iso-8859-1"?>
<!-- Generator: Adobe Illustrator 19.0.0, SVG Export Plug-In . SVG Version: 6.00 Build 0)  -->
<svg version="1.1" id="Capa_1" xmlns="http://www.w3.org/2000/svg" xmlns:xlink="http://www.w3.org/1999/xlink" x="0px" y="0px"
	 viewBox="0 0 512 512" style="enable-background:new 0 0 512 512;" xml:space="preserve">
<path style="fill:#FD3018;" d="M89.799,192.896C35.043,164.332,0,107.243,0,45.5v-30c0-8.291,6.709-15,15-15h30
	c70.518,0,134.242,45.78,157.094,112.416c2.197,6.401-0.146,13.477-5.771,17.285l-91.172,61.816
	C100.634,195.089,94.729,195.46,89.799,192.896z"/>
<path style="fill:#FEDBAB;" d="M96,161.976c-18.701-11.346-34.512-27.103-46.029-45.968C36.906,94.607,30,70.226,30,45.5v-15h15
	c28.266,0,55.566,8.855,78.95,25.607c20.236,14.498,35.853,33.693,45.642,55.973L96,161.976z"/>
<path style="fill:#E61E14;" d="M406.85,192.018l-91.172-61.816c-5.625-3.809-7.969-10.884-5.771-17.285
	C332.758,46.28,396.482,0.5,467,0.5h30c8.291,0,15,6.709,15,15v30c0,61.743-35.043,118.832-89.799,147.396
	C417.271,195.46,411.366,195.089,406.85,192.018z"/>
<path style="fill:#FEC478;" d="M342.409,112.08c9.79-22.283,25.405-41.477,45.641-55.973C411.434,39.355,438.734,30.5,467,30.5h15
	v15c0,24.726-6.906,49.107-19.971,70.508c-11.513,18.857-27.315,34.609-46.031,45.967L342.409,112.08z"/>
<path style="fill:#FEDBAB;" d="M192.719,476.402c-4.541,0-9.023-2.051-11.968-5.947l-50.698-66.899
	C110.468,377.174,79.076,361.5,46,361.5c-6.064,0-11.543-3.647-13.857-9.258c-2.329-5.61-1.04-12.056,3.252-16.348l34.497-34.497
	c19.702-19.702,49.893-24.595,75.146-12.158c21.87,10.942,35.962,33.75,35.962,58.154v34.204c0,25.649,8.203,50.127,23.701,70.811
	c4.966,6.606,3.633,15.996-2.974,20.977C199.032,475.421,195.854,476.402,192.719,476.402z"/>
<path style="fill:#FEC478;" d="M319.281,476.402c-3.135,0-6.299-0.981-8.994-3.003c-6.621-4.98-7.954-14.37-2.988-20.991
	C322.797,431.725,331,407.247,331,381.598v-34.204c0-24.404,14.092-47.212,35.889-58.11c25.107-12.539,55.884-7.251,75.234,12.114
	l34.482,34.497c4.292,4.292,5.581,10.737,3.252,16.348c-2.314,5.61-7.793,9.258-13.857,9.258c-33.003,0-64.526,15.703-84.316,42.012
	l-50.405,66.914C328.334,474.337,323.837,476.402,319.281,476.402z"/>
<path style="fill:#FD4E26;" d="M262.899,91.5C201.4,90,143.5,112.2,99.401,154.8C55.3,197.699,31,255,31,316.5v30
	c0,6,3.6,11.4,9.3,13.799c5.7,2.401,12.001,1.201,16.199-3.3L91,322.5c10.8-10.801,27.001-13.2,40.8-6.301
	c11.7,5.7,19.2,17.999,19.2,31.199v34.2c0,32.1,10.201,62.999,29.7,88.801c3.9,5.4,8.701,10.8,13.5,15.3
	c12.9,13.198,29.099,21.599,46.8,24.3c4.799,1.199,9.901,1.5,15,1.5s10.201-0.3,15-1.5c17.701-2.701,33.9-11.102,46.8-24.3
	c4.799-4.501,9.6-9.901,13.5-15.3c19.499-25.801,29.7-56.7,29.7-88.801v-34.2c0-13.2,7.5-25.499,19.2-31.199
	c13.799-6.899,30.3-4.2,40.8,6.301l34.501,34.499c4.199,4.501,10.499,5.7,16.199,3.3c5.7-2.399,9.3-7.798,9.3-13.799v-21.301
	C481,200.1,383.2,95.4,262.899,91.5z"/>
<path style="fill:#FD3018;" d="M262.899,91.5c-2.318-0.057-4.592,0.152-6.899,0.163V511.5c5.099,0,10.201-0.3,15-1.5
	c17.701-2.701,33.9-11.102,46.8-24.3c4.799-4.501,9.6-9.901,13.5-15.3c19.499-25.801,29.7-56.7,29.7-88.801v-34.2
	c0-13.2,7.5-25.499,19.2-31.199c13.799-6.899,30.3-4.2,40.8,6.301L455.501,357c4.199,4.501,10.499,5.7,16.199,3.3
	c5.7-2.399,9.3-7.798,9.3-13.799V325.2C481,200.1,383.2,95.4,262.899,91.5z"/>
<path style="fill:#57555C;" d="M166,271.5c-3.838,0-7.676-1.465-10.605-4.395l-30-30c-5.859-5.859-5.859-15.352,0-21.211
	c5.859-5.859,15.352-5.859,21.211,0l30,30c5.859,5.859,5.859,15.352,0,21.211C173.676,270.035,169.838,271.5,166,271.5z"/>
<path style="fill:#3C3A41;" d="M346,271.5c-3.838,0-7.676-1.465-10.605-4.395c-5.859-5.859-5.859-15.352,0-21.211l30-30
	c5.859-5.859,15.352-5.859,21.211,0s5.859,15.352,0,21.211l-30,30C353.676,270.035,349.838,271.5,346,271.5z"/>
<path style="fill:#57555C;" d="M271,451.5V510c-4.799,1.199-9.901,1.5-15,1.5s-10.201-0.3-15-1.5v-58.5c0-8.401,6.599-15,15-15
	S271,443.099,271,451.5z"/>
<path style="fill:#3C3A41;" d="M271,510v-58.5c0-8.401-6.599-15-15-15v75C261.099,511.5,266.201,511.2,271,510z"/>
<path style="fill:#57555C;" d="M256,466.5c-4.556,0-8.862-2.065-11.719-5.625l-30-37.5C212.157,420.709,211,417.413,211,414
	c0-24.814,20.186-45,45-45s45,20.186,45,45c0,3.413-1.157,6.709-3.281,9.375l-30,37.5C264.862,464.435,260.556,466.5,256,466.5z"/>
<path style="fill:#3C3A41;" d="M267.719,460.875l30-37.5c2.124-2.666,3.281-5.962,3.281-9.375c0-24.814-20.186-45-45-45v97.5
	C260.556,466.5,264.862,464.435,267.719,460.875z"/>
<g>
</g>
<g>
</g>
<g>
</g>
<g>
</g>
<g>
</g>
<g>
</g>
<g>
</g>
<g>
</g>
<g>
</g>
<g>
</g>
<g>
</g>
<g>
</g>
<g>
</g>
<g>
</g>
<g>
</g>
</svg>
