<?xml version="1.0" encoding="iso-8859-1"?>
<!-- Generator: Adobe Illustrator 19.0.0, SVG Export Plug-In . SVG Version: 6.00 Build 0)  -->
<svg version="1.1" id="Capa_1" xmlns="http://www.w3.org/2000/svg" xmlns:xlink="http://www.w3.org/1999/xlink" x="0px" y="0px"
	 viewBox="0 0 512 512" style="enable-background:new 0 0 512 512;" xml:space="preserve">
<path style="fill:#10BB67;" d="M480.799,312.7H31.201c-10.503,0-18.003,10.499-14.099,20.4C54.902,430.6,151.3,496,256,496
	s201.098-65.4,238.898-162.9C498.802,323.2,491.302,312.7,480.799,312.7z"/>
<path style="fill:#0CA656;" d="M494.898,333.1C457.098,430.6,360.7,496,256,496V312.7h224.799
	C491.302,312.7,498.802,323.2,494.898,333.1z"/>
<path style="fill:#32D736;" d="M457.299,166.599C452.802,161.8,289.3,106,286,106h-60c-3.3,0-166.802,55.8-171.299,60.599
	C20.2,202.899,0,250.899,0,301c0,24.899,20.098,45,45,45c34.797,0,66.398,6.599,97.599,27.599
	C174.701,394.6,211.901,406,250.001,406h11.997c38.101,0,75.3-11.4,107.402-32.401C400.302,352.899,431.902,346,467,346
	c24.902,0,45-20.101,45-45C512,250.899,491.8,202.899,457.299,166.599z"/>
<path style="fill:#10BB67;" d="M512,301c0,24.899-20.098,45-45,45c-35.098,0-66.698,6.899-97.599,27.599
	C337.299,394.6,300.099,406,261.999,406H256V106h30c3.3,0,166.802,55.8,171.299,60.599C491.8,202.899,512,250.899,512,301z"/>
<circle style="fill:#57555C;" cx="196" cy="301" r="15"/>
<circle style="fill:#3C3A41;" cx="316" cy="301" r="15"/>
<path style="fill:#10BB67;" d="M376,226c-57.891,0-105-47.109-105-105S318.109,16,376,16s105,47.109,105,105S433.891,226,376,226z"
	/>
<path style="fill:#A4D9F5;" d="M376,196c-41.353,0-75-33.647-75-75s33.647-75,75-75s75,33.647,75,75S417.353,196,376,196z"/>
<path style="fill:#3C3A41;" d="M376,166c-24.814,0-45-20.186-45-45s20.186-45,45-45s45,20.186,45,45S400.814,166,376,166z"/>
<path style="fill:#32D736;" d="M136,226c-57.891,0-105-47.109-105-105S78.109,16,136,16s105,47.109,105,105S193.891,226,136,226z"/>
<path style="fill:#CAE8F9;" d="M136,196c-41.353,0-75-33.647-75-75s33.647-75,75-75s75,33.647,75,75S177.353,196,136,196z"/>
<path style="fill:#57555C;" d="M136,166c-24.814,0-45-20.186-45-45s20.186-45,45-45s45,20.186,45,45S160.814,166,136,166z"/>
<g>
</g>
<g>
</g>
<g>
</g>
<g>
</g>
<g>
</g>
<g>
</g>
<g>
</g>
<g>
</g>
<g>
</g>
<g>
</g>
<g>
</g>
<g>
</g>
<g>
</g>
<g>
</g>
<g>
</g>
</svg>
