<?xml version="1.0" encoding="iso-8859-1"?>
<!-- Generator: Adobe Illustrator 19.0.0, SVG Export Plug-In . SVG Version: 6.00 Build 0)  -->
<svg version="1.1" id="Capa_1" xmlns="http://www.w3.org/2000/svg" xmlns:xlink="http://www.w3.org/1999/xlink" x="0px" y="0px"
	 viewBox="0 0 512 512" style="enable-background:new 0 0 512 512;" xml:space="preserve">
<path style="fill:#32D736;" d="M285,451.008h-30c-8.291,0-15-6.709-15-15s6.709-15,15-15h19.834l20.244-50.566
	c3.076-7.705,11.807-11.47,19.482-8.364c7.705,3.076,11.426,11.807,8.35,19.497l-23.994,60
	C296.66,447.272,291.123,451.008,285,451.008z"/>
<path style="fill:#10BB67;" d="M437,451.008h-30c-6.123,0-11.66-3.735-13.916-9.434l-23.994-60
	c-3.076-7.69,0.645-16.421,8.35-19.497c7.646-3.12,16.406,0.659,19.482,8.364l20.244,50.566H437c8.291,0,15,6.709,15,15
	S445.291,451.008,437,451.008z"/>
<path style="fill:#32D736;" d="M407,211.008c-8.291,0-15-6.709-15-15c0-57.891,47.109-105,105-105c8.291,0,15,6.709,15,15
	s-6.709,15-15,15c-41.367,0-75,33.647-75,75C422,204.299,415.291,211.008,407,211.008z"/>
<path style="fill:#0CA656;" d="M452,244.007l-3.6-62.999H360L90.3,289.007c1.201,56.4,47.699,102.001,104.7,102.001h212
	c24.302,0,45.901-13.5,56.7-35.099l41.7-82.8c4.197-9,6.599-18.6,6.599-28.5v-1.5L452,244.007z"/>
<path style="fill:#57555C;" d="M452,301.008c-33.076,0-60-26.909-60-60c0-32.021,24.961-58.359,56.836-59.985
	c35.127,0.776,62.402,28.037,63.164,62.051c0,0.366,0,0.732-0.029,1.099C510.359,276.047,484.021,301.008,452,301.008z"/>
<path style="fill:#10BB67;" d="M360,181.008h-88.126h-33.925H15c-8.291,0-15,6.709-15,15c0,57.891,47.109,105,105,105h179.561
	c0.081,0,0.143-0.042,0.22-0.044c0.077,0.002,0.139,0.044,0.22,0.044c41.367,0,75-33.647,75-75v-45H360z"/>
<g>
	<path style="fill:#32D736;" d="M175.8,91.008L59.1,440.807c-1.802,6-7.8,10.201-14.099,10.201H15c-8.401,0-15-6.599-15-15
		s6.599-15,15-15h19.2L150.9,71.209L175.8,91.008z"/>
	<path style="fill:#32D736;" d="M240,346.008c-30,0-55.02-21.636-59.531-51.46l-30.322-216.46
		c-0.996-7.046,3.105-13.813,9.814-16.201c6.68-2.446,14.18,0.264,17.871,6.328L291.24,254.806
		C315.646,295.088,286.4,346.008,240,346.008z"/>
</g>
<g>
</g>
<g>
</g>
<g>
</g>
<g>
</g>
<g>
</g>
<g>
</g>
<g>
</g>
<g>
</g>
<g>
</g>
<g>
</g>
<g>
</g>
<g>
</g>
<g>
</g>
<g>
</g>
<g>
</g>
</svg>
