<?xml version="1.0" encoding="iso-8859-1"?>
<!-- Generator: Adobe Illustrator 19.0.0, SVG Export Plug-In . SVG Version: 6.00 Build 0)  -->
<svg version="1.1" id="Layer_1" xmlns="http://www.w3.org/2000/svg" xmlns:xlink="http://www.w3.org/1999/xlink" x="0px" y="0px"
	 viewBox="0 0 512.219 512.219" style="enable-background:new 0 0 512.219 512.219;" xml:space="preserve">
<g>
	<g>
		<ellipse style="fill:#7E5C62;" cx="256" cy="268.109" rx="255.781" ry="232"/>
	</g>
	<g>
		<path style="fill:#FFCD00;" d="M302.719,351.445l-40.219-56c-1.508-2.094-3.922-3.336-6.5-3.336c-0.008,0-0.016,0-0.023,0
			c-2.578,0.008-5,1.258-6.5,3.367l-39.781,56c-1.781,2.508-1.969,5.828-0.469,8.516l40,72c1.406,2.539,4.086,4.117,6.992,4.117
			s5.586-1.578,6.992-4.117l40-72C304.719,357.289,304.523,353.961,302.719,351.445z"/>
	</g>
	<g>
		<path style="fill:#FF9100;" d="M249.476,295.477l-39.781,56c-1.781,2.508-1.969,5.828-0.469,8.516l40,72
			c1.37,2.474,3.954,4.009,6.773,4.088V292.109c-0.008,0-0.016,0-0.023,0C253.398,292.117,250.976,293.367,249.476,295.477z"/>
	</g>
	<g>
		<path style="fill:#E6BE94;" d="M376.004,157.221c-53.829-7.459-101.497,23.404-119.894,69.182
			c-18.398-45.779-66.066-76.642-119.896-69.182c-49.922,6.919-89.733,48.001-95.284,98.093
			c-7.489,67.585,45.219,124.795,111.289,124.795c41.549,0,77.757-22.652,97.077-56.259c2.989-5.2,10.639-5.2,13.628,0
			c19.32,33.607,55.527,56.259,97.076,56.259c66.07,0,118.779-57.211,111.289-124.796
			C465.737,205.221,425.926,164.139,376.004,157.221z"/>
	</g>
	<g>
		<circle style="fill:#996459;" cx="360" cy="268.109" r="72"/>
	</g>
	<g>
		<circle style="fill:#996459;" cx="152" cy="268.109" r="72"/>
	</g>
	<g>
		<path style="fill:#996459;" d="M400,76.109h40c30.875,0,56-25.125,56-56c0-4.422,3.578-8,8-8s8,3.578,8,8v96
			c0,39.703-32.297,72-72,72h-96c-44.109,0-80,35.891-80,80c0,4.422-3.578,8-8,8s-8-3.578-8-8v-40
			C248,144.297,316.187,76.109,400,76.109z"/>
	</g>
	<g>
		<path style="fill:#996459;" d="M112.219,76.109h-40c-30.875,0-56-25.125-56-56c0-4.422-3.578-8-8-8s-8,3.578-8,8v96
			c0,39.703,32.297,72,72,72h96c44.109,0,80,35.891,80,80c0,4.422,3.578,8,8,8s8-3.578,8-8v-40
			C264.219,144.297,196.031,76.109,112.219,76.109z"/>
	</g>
	<g>
		<g>
			<circle style="fill:#FFCD00;" cx="152.219" cy="268.109" r="48"/>
		</g>
		<g>
			<circle style="fill:#5C546A;" cx="152.219" cy="268.109" r="24"/>
		</g>
		<g>
			<circle style="fill:#FFFFFF;" cx="168.11" cy="252.219" r="16"/>
		</g>
	</g>
	<g>
		<g>
			<circle style="fill:#FFCD00;" cx="360" cy="268.109" r="48"/>
		</g>
		<g>
			<circle style="fill:#5C546A;" cx="360" cy="268.109" r="24"/>
		</g>
		<g>
			<circle style="fill:#FFFFFF;" cx="375.89" cy="252.219" r="16"/>
		</g>
	</g>
	<g>
		<path style="fill:#E6BE94;" d="M504.219,12.109c-4.422,0-8,3.578-8,8c0,30.875-25.125,56-56,56h-40
			c-67.028,0-123.954,43.663-144.109,103.999C235.954,119.772,179.028,76.109,112,76.109H72c-30.875,0-56-25.125-56-56
			c0-4.422-3.578-8-8-8s-8,3.578-8,8v48c0,30.928,25.072,56,56,56h56c54.303,0,101.859,28.707,128.675,71.684
			c3.288,5.27,9.202,8.316,15.413,8.316h0.043c6.211,0,12.125-3.046,15.413-8.316c26.816-42.977,74.372-71.684,128.675-71.684h56
			c30.928,0,56-25.072,56-56v-48C512.219,15.687,508.64,12.109,504.219,12.109z"/>
	</g>
</g>
<g>
</g>
<g>
</g>
<g>
</g>
<g>
</g>
<g>
</g>
<g>
</g>
<g>
</g>
<g>
</g>
<g>
</g>
<g>
</g>
<g>
</g>
<g>
</g>
<g>
</g>
<g>
</g>
<g>
</g>
</svg>
