<?xml version="1.0" encoding="iso-8859-1"?>
<!-- Generator: Adobe Illustrator 19.0.0, SVG Export Plug-In . SVG Version: 6.00 Build 0)  -->
<svg version="1.1" id="Capa_1" xmlns="http://www.w3.org/2000/svg" xmlns:xlink="http://www.w3.org/1999/xlink" x="0px" y="0px"
	 viewBox="0 0 512 512" style="enable-background:new 0 0 512 512;" xml:space="preserve">
<path style="fill:#3C3A41;" d="M433.396,195.069c-3.428,0-6.768-1.172-9.463-3.369l-86.309-70.327
	c-5.554-4.522-5.459-9.065-5.624-15.439c0-49.629,40.371-90,90-90s90,40.371,90,90c0,44.092-32.813,82.339-76.348,88.96
	C434.891,195.01,434.158,195.069,433.396,195.069z"/>
<path style="fill:#57555C;" d="M78.604,195.069c-0.762,0-1.494-0.059-2.256-0.176C32.812,188.272,0,150.025,0,105.933
	c0-49.629,40.371-90,90-90s90,40.371,90,90c-0.166,6.375-0.071,10.917-5.626,15.439L88.066,191.7
	C85.371,193.897,82.031,195.069,78.604,195.069z"/>
<path style="fill:#B7E0F6;" d="M481,285.933c0,84-55.499,161.1-138.3,193.2v-0.601l-86.7-73.8l-80.999,77.1
	C88.898,450.933,31,372.033,31,285.933c0-115.8,100.8-210,225-210S481,170.134,481,285.933z"/>
<path style="fill:#A4D9F5;" d="M481,285.933c0,84-55.499,161.1-138.3,193.2v-0.601l-86.7-73.8V75.933
	C380.2,75.933,481,170.134,481,285.933z"/>
<path style="fill:#57555C;" d="M133.275,368.946c-39.977-14.592-56.386-64.488-39.697-110.259
	c16.527-45.465,61.094-73.55,101.25-58.901l0,0c40.846,14.85,59.244,68.93,36.123,118.916c-0.645,1.392-1.494,2.681-2.549,3.809
	l-34.805,38.159c-1.143,1.26-2.49,2.314-3.984,3.105C171.949,373.258,151.976,375.707,133.275,368.946z"/>
<path style="fill:#3C3A41;" d="M328.568,368.331c-2.139-0.791-4.043-2.051-5.625-3.691l-45.205-47.051
	c-1.377-1.406-2.432-3.076-3.135-4.893c-18.937-48.029-0.79-98.567,38.672-112.91c40.032-14.62,84.621,13.322,101.25,58.901v0.015
	c16.963,46.641-0.85,96.094-39.697,110.229C360.549,374.145,344.493,374.187,328.568,368.331z"/>
<path style="fill:#CAE8F9;" d="M361,420.933c0,26.4-5.999,45.3-18.3,57.599c-13.802,13.5-32.699,16.8-53.701,17.401H271l-15-18.6
	l-0.901-1.201L241,495.933c-5.398,0-10.499,0.3-15.3,0c-36.899-0.601-74.7-10.201-74.7-75c0-52.8,14.099-77.401,41.7-107.401
	c15.897-17.1,38.998-27.299,63.3-27.599h1.201c24.298,0,46.201,8.399,61.798,24C349.6,339.933,361,369.933,361,420.933z"/>
<path style="fill:#B7E0F6;" d="M361,420.933c0,26.4-5.999,45.3-18.3,57.599c-13.802,13.5-32.699,16.8-53.701,17.401H271l-15-18.6
	v-191.4h1.201c24.298,0,46.201,8.399,61.798,24C349.6,339.933,361,369.933,361,420.933z"/>
<circle style="fill:#A4D9F5;" cx="346" cy="300.93" r="15"/>
<circle style="fill:#B7E0F6;" cx="166" cy="300.93" r="15"/>
<path style="fill:#787780;" d="M271,420.933v75h-30v-75c0-8.401,6.599-15,15-15S271,412.532,271,420.933z"/>
<g>
	<path style="fill:#57555C;" d="M271,420.933v75h-15v-90C264.401,405.933,271,412.532,271,420.933z"/>
	<path style="fill:#57555C;" d="M256,345.933c-24.902,0-45,20.099-45,45c0,3.9,1.501,7.8,4.501,10.499l30,30
		c2.699,3.001,6.599,4.501,10.499,4.501s7.8-1.5,10.499-4.501l30-30c2.999-2.699,4.501-6.599,4.501-10.499
		C301,366.033,280.902,345.933,256,345.933z"/>
</g>
<path style="fill:#3C3A41;" d="M301,390.933c0,3.9-1.501,7.8-4.501,10.499l-30,30c-2.699,3.001-6.599,4.501-10.499,4.501v-90
	C280.902,345.933,301,366.033,301,390.933z"/>
<g>
</g>
<g>
</g>
<g>
</g>
<g>
</g>
<g>
</g>
<g>
</g>
<g>
</g>
<g>
</g>
<g>
</g>
<g>
</g>
<g>
</g>
<g>
</g>
<g>
</g>
<g>
</g>
<g>
</g>
</svg>
