<?xml version="1.0" encoding="iso-8859-1"?>
<!-- Generator: Adobe Illustrator 19.0.0, SVG Export Plug-In . SVG Version: 6.00 Build 0)  -->
<svg version="1.1" id="Capa_1" xmlns="http://www.w3.org/2000/svg" xmlns:xlink="http://www.w3.org/1999/xlink" x="0px" y="0px"
	 viewBox="0 0 512 512" style="enable-background:new 0 0 512 512;" xml:space="preserve">
<path style="fill:#FEA832;" d="M93.311,181.747c-5.947,0-11.572-3.56-13.916-9.419L42.217,78.442
	c-3.076-7.705,0.645-16.436,8.35-19.512c7.676-3.135,16.406,0.659,19.482,8.35l37.178,93.886c3.076,7.705-0.645,16.436-8.35,19.512
	C97.061,181.41,95.156,181.747,93.311,181.747z"/>
<path style="fill:#FE9923;" d="M116.543,182.113c-1.875,0-3.75-0.337-5.566-1.069c-7.705-3.076-11.426-11.807-8.35-19.512
	l37.324-94.252c3.076-7.705,11.895-11.44,19.482-8.35c7.705,3.076,11.426,11.807,8.35,19.512l-37.324,94.252
	C128.115,178.554,122.49,182.113,116.543,182.113z"/>
<path style="fill:#FEDB41;" d="M45,90C20.186,90,0,69.814,0,45S20.186,0,45,0s45,20.186,45,45S69.814,90,45,90z"/>
<path style="fill:#57555C;" d="M45,60c-8.262,0-15-6.724-15-15s6.738-15,15-15s15,6.724,15,15S53.262,60,45,60z"/>
<path style="fill:#FCBF29;" d="M165,90c-24.814,0-45-20.186-45-45s20.186-45,45-45s45,20.186,45,45S189.814,90,165,90z"/>
<path style="fill:#57555C;" d="M165,60c-8.262,0-15-6.724-15-15s6.738-15,15-15s15,6.724,15,15S173.262,60,165,60z"/>
<path style="fill:#BF6015;" d="M497,272v15c0,82.8-68.2,150-151,150H165V279.2c0-87.599,65.501-163.599,148.297-172
	c0.601-0.3,0.901-0.3,1.501-0.3c5.402-0.6,11.104-0.9,16.502-0.9c41.4,0,80.797,14.7,111.698,42.9
	C477.203,180.099,497,225.5,497,272z"/>
<path style="fill:#994C10;" d="M497,272v15c0,82.8-68.2,150-151,150h-32.703V107.199c0.601-0.3,0.901-0.3,1.501-0.3
	C320.2,106.3,325.902,106,331.3,106c41.4,0,80.797,14.7,111.698,42.9C477.203,180.099,497,225.5,497,272z"/>
<path style="fill:#994C0F;" d="M512,287c0,47.1-20.098,89.7-51.899,119.7h0.3L443.9,485.6l-130.602-17.1l-74.198-9.6l-6.3-66.9
	c-14.399-21.601-22.8-47.401-22.8-75v-24.901c0-57.9,45.7-108.1,100.302-111.099h2.996c28.502-0.601,54.602,9.3,75,28.799
	C409.3,229.9,422,257.899,422,287v15c0,32.999-28.001,60-61,60c-19.501,0-36.599-9.3-47.703-23.701C305.501,328.1,301,315.5,301,302
	v-15c0-7.5,5.098-13.5,12.297-14.7c0.901-0.3,1.802-0.3,2.703-0.3c8.401,0,15,6.599,15,15v15c0,16.5,13.499,30,30,30s30-13.5,30-30
	v-15c0-20.7-8.401-41.201-23.401-55.3c-14.7-14.101-33.896-21.301-54.302-20.7H312.1c-39.298,2.1-72.1,39.099-72.1,81.099V317
	c0,46.5,31.3,86.1,73.297,99.6C323.5,420.2,334.6,422,346,422c74.399,0,136-60.601,136-135v-15c0-42.301-17.999-83.5-49.2-112
	c-31.498-28.801-73.601-42.299-116.499-38.401c-0.901,0-2.102,0.3-3.003,0.3C238.898,130.6,180,199.699,180,279.2V437
	c0,8.399-6.599,15-15,15s-15-6.601-15-15V279.2c0-96,72.4-178.599,163.297-187.301C364.9,86.8,415.1,103.299,453.201,137.8
	C490.401,171.7,512,221.3,512,272V287z"/>
<g>
	<path style="fill:#713708;" d="M422,287v15c0,32.999-28.001,60-61,60c-19.501,0-36.599-9.3-47.703-23.701V272.3
		c0.901-0.3,1.802-0.3,2.703-0.3c8.401,0,15,6.599,15,15v15c0,16.5,13.499,30,30,30s30-13.5,30-30v-15
		c0-20.7-8.401-41.201-23.401-55.3c-14.7-14.101-33.896-21.301-54.302-20.7v-30c28.502-0.601,54.602,9.3,75,28.799
		C409.3,229.9,422,257.899,422,287z"/>
	<path style="fill:#713708;" d="M512,287c0,47.1-20.098,89.7-51.899,119.7h0.3L443.9,485.6l-130.602-17.1v-51.9
		C323.5,420.2,334.6,422,346,422c74.399,0,136-60.601,136-135v-15c0-42.301-17.999-83.5-49.2-112
		c-31.498-28.801-73.601-42.299-116.499-38.401c-0.901,0-2.102,0.3-3.003,0.3v-30c51.603-5.099,101.803,11.4,139.904,45.901
		C490.401,171.7,512,221.3,512,272V287z"/>
</g>
<path style="fill:#FEDB41;" d="M512,497c0,8.399-6.599,15-15,15H165c-74.399,0-135-60.601-135-135V229.3
	c0-38.401,27.001-71.4,62.402-77.401c22.2-3.3,44.399,2.701,61.198,17.1c7.5,6.301,13.502,13.801,17.699,22.2
	C177.001,201.7,180,213.699,180,226v121c0,24.899,20.098,45,45,45h7.8c18.3,27.599,47.501,47.699,80.497,56.1
	C323.8,450.5,334.6,452,346,452c44.099,0,84.701-17.401,114.401-45.3C491.602,425.3,512,459.5,512,497z"/>
<path style="fill:#FCBF29;" d="M512,497c0,8.399-6.599,15-15,15H313.297v-63.9C323.8,450.5,334.6,452,346,452
	c44.099,0,84.701-17.401,114.401-45.3C491.602,425.3,512,459.5,512,497z"/>
<circle style="fill:#57555C;" cx="105" cy="226" r="15"/>
<g>
</g>
<g>
</g>
<g>
</g>
<g>
</g>
<g>
</g>
<g>
</g>
<g>
</g>
<g>
</g>
<g>
</g>
<g>
</g>
<g>
</g>
<g>
</g>
<g>
</g>
<g>
</g>
<g>
</g>
</svg>
