<?xml version="1.0" encoding="iso-8859-1"?>
<!-- Generator: Adobe Illustrator 19.0.0, SVG Export Plug-In . SVG Version: 6.00 Build 0)  -->
<svg version="1.1" id="Capa_1" xmlns="http://www.w3.org/2000/svg" xmlns:xlink="http://www.w3.org/1999/xlink" x="0px" y="0px"
	 viewBox="0 0 512 512" style="enable-background:new 0 0 512 512;" xml:space="preserve">
<path style="fill:#8B8892;" d="M412.699,63.6C370.402,22.5,314.899,0.3,256.1,0h-6.899C128.9,3.6,31.1,108.6,31.1,233.699V345
	c0,41.4,33.6,75,75,75h28.198l55.503,6.599c18.896,15,41.997,23.401,66.299,23.401s47.703-8.401,66.299-23.701L376.1,420h30
	c41.4,0,74.8-33.6,74.8-75V225C480.9,163.5,456.798,106.199,412.699,63.6z"/>
<path style="fill:#787780;" d="M480.9,225v120c0,41.4-33.4,75-74.8,75h-30l-53.701,6.299C303.803,441.599,280.402,450,256.1,450V0
	c58.799,0.3,114.302,22.5,156.599,63.6C456.798,106.199,480.9,163.5,480.9,225z"/>
<path style="fill:#CAE8F9;" d="M195.898,499.662c0.001,8.047-7.611,13.993-15.387,11.924c-25.604-6.814-44.412-30.229-44.412-57.997
	V362l59.785,13.506L195.898,499.662z"/>
<path style="fill:#B7E0F6;" d="M316.1,375.506L375.915,362l-0.015,91.588c0,27.756-18.808,51.179-44.412,57.997
	c-7.776,2.07-15.388-3.875-15.388-11.922V375.506z"/>
<g>
	<circle style="fill:#3C3A41;" cx="166.1" cy="165" r="15"/>
	<circle style="fill:#3C3A41;" cx="346.1" cy="165" r="15"/>
</g>
<path style="fill:#FEDBAB;" d="M331.1,210h-150c-49.501,0-90,40.499-90,90c0,49.499,40.499,90,90,90
	c31.201,0,58.799-15.901,75-40.201c16.201,24.3,43.799,40.201,75,40.201c49.501,0,89.8-40.501,89.8-90
	C420.9,250.499,380.601,210,331.1,210z"/>
<path style="fill:#FEC478;" d="M420.9,300c0,49.499-40.299,90-89.8,90c-31.201,0-58.799-15.901-75-40.201V210h75
	C380.601,210,420.9,250.499,420.9,300z"/>
<path style="fill:#57555C;" d="M256.1,217.5c-24.902,0-45,20.099-45,45c0,3.3,1.201,6.599,3.3,9.3l30,37.5
	c2.699,3.6,7.2,5.7,11.7,5.7s9.001-2.1,11.7-5.7l30-37.5c2.098-2.701,3.3-6,3.3-9.3C301.1,237.599,281.002,217.5,256.1,217.5z"/>
<path style="fill:#3C3A41;" d="M301.1,262.5c0,3.3-1.201,6.599-3.3,9.3l-30,37.5c-2.699,3.6-7.2,5.7-11.7,5.7v-97.5
	C281.002,217.5,301.1,237.599,301.1,262.5z"/>
<g>
</g>
<g>
</g>
<g>
</g>
<g>
</g>
<g>
</g>
<g>
</g>
<g>
</g>
<g>
</g>
<g>
</g>
<g>
</g>
<g>
</g>
<g>
</g>
<g>
</g>
<g>
</g>
<g>
</g>
</svg>
